<svg xmlns="http://www.w3.org/2000/svg" xmlns:xlink="http://www.w3.org/1999/xlink" width="18.188" height="18.188"><defs><linearGradient id="b"><stop offset="0" stop-color="#d8d8d8"/><stop offset="1" stop-color="#fff"/></linearGradient><linearGradient id="a"><stop offset="0" stop-color="#ff5151"/><stop offset="1" stop-color="#b30000"/></linearGradient><radialGradient xlink:href="#a" cx="353.115" cy="206.001" fx="353.115" fy="206.001" r="8.625" gradientTransform="matrix(2.291 .999 -1.514 3.473 -143.597 -861.585)" gradientUnits="userSpaceOnUse"/><radialGradient xlink:href="#b" cx="360.347" cy="219.806" fx="360.347" fy="219.806" r="8.594" gradientUnits="userSpaceOnUse" gradientTransform="matrix(1.012 -1.722 1.633 .96 -361.336 627.451)"/><radialGradient xlink:href="#a" gradientUnits="userSpaceOnUse" gradientTransform="matrix(2.291 .999 -1.514 3.473 -143.597 -861.585)" cx="353.115" cy="206.001" fx="353.115" fy="206.001" r="8.625"/><linearGradient id="d"><stop offset="0" stop-color="#d8d8d8"/><stop offset="1" stop-color="#fff"/></linearGradient><radialGradient xlink:href="#c" id="f" gradientUnits="userSpaceOnUse" gradientTransform="matrix(2.291 .999 -1.514 3.473 -493.003 -1063.367)" cx="353.115" cy="206.001" fx="353.115" fy="206.001" r="8.625"/><linearGradient id="c"><stop offset="0" stop-color="#ff5151"/><stop offset="1" stop-color="#b30000"/></linearGradient><radialGradient r="8.594" fy="219.806" fx="360.347" cy="219.806" cx="360.347" gradientTransform="matrix(1.012 -1.722 1.633 .96 -361.336 627.451)" gradientUnits="userSpaceOnUse" id="e" xlink:href="#d"/></defs><path d="M9.094.5C4.348.5.5 4.348.5 9.094c0 4.746 3.848 8.594 8.594 8.594 4.746 0 8.594-3.848 8.594-8.594C17.688 4.348 13.84.5 9.094.5z" fill="url(#e)"/><path d="M9.094.594C4.4.594.594 4.4.594 9.094v.062c0 .154.022.286.03.438h.157c2.1 3.937 12.62 6.697 16.626.906l.156-.625c.025-.26.032-.514.032-.78 0-4.696-3.806-8.5-8.5-8.5z" fill="url(#f)" stroke="#f00" stroke-width=".25"/><path d="M9.094.094c-4.965 0-9 4.035-9 9 0 4.964 4.035 9 9 9 4.964 0 9-4.036 9-9 0-4.965-4.036-9-9-9zm0 1c4.424 0 8 3.576 8 8 0 4.424-3.576 8-8 8-4.424 0-8-3.576-8-8 0-4.424 3.576-8 8-8z"/><path d="M.594 9.152c1.5 4.168 12.664 7.35 16.82 1.34" stroke="#000" stroke-width=".7" fill="none"/><path transform="matrix(1.076 .223 -.1 1.097 -354.735 -300.578)" d="M357.41 213.88a1.696 1.696 0 1 1-3.392 0 1.696 1.696 0 1 1 3.393 0z" fill="#fff" stroke="#000" stroke-width=".658" stroke-linecap="round"/></svg>